<svg xmlns="http://www.w3.org/2000/svg" id="Layer_1" viewBox="0 0 474.85 146.22">
  <defs>
    <style>
      .cls-1 {
        fill: #1255a3;
      }
    </style>
  </defs>
  <g>
    <g>
      <path class="cls-1" d="M159.67,60.38c10.65,0,15.78,6.55,15.78,14.88s-4.96,15.31-15.78,15.31h-12.94v-30.18h12.94ZM155.18,83.36h4.48c5.43,0,7.33-4.05,7.33-8.19s-2.11-7.68-7.33-7.68h-4.48v15.87Z"/>
      <path class="cls-1" d="M200.8,85.6h-13.5l-1.98,4.96h-9.06l13.54-30.18h8.62l13.5,30.18h-9.14l-1.98-4.96ZM194.07,68.83l-3.88,9.62h7.72l-3.84-9.62Z"/>
      <path class="cls-1" d="M223.95,82.41v8.15h-8.54v-30.18h14.66c8.11,0,12.12,5.09,12.12,11s-4.05,10.95-12.12,11.04h-6.12ZM223.95,75.21h6.12c2.37,0,3.58-1.72,3.58-3.71s-1.25-3.79-3.58-3.79h-6.12v7.5Z"/>
      <path class="cls-1" d="M275.09,60.42v16.86c.04,8.93-5.39,13.93-14.23,13.93s-14.23-4.79-14.23-14.01v-16.77h8.49v16.77c0,4.74,2.29,6.73,5.73,6.73s5.73-2.07,5.73-6.64v-16.86h8.49Z"/>
      <path class="cls-1" d="M309.8,90.56h-9.4l-7.03-9.79h-2.98v9.79h-8.54v-30.18h14.75c7.72,0,11.73,4.96,11.73,10.39,0,3.71-1.29,6.86-6.38,9.1l7.85,10.18v.52ZM290.39,67.19v7.24h6.3c2.24,0,3.23-1.68,3.23-3.49s-1.08-3.75-3.32-3.75h-6.21Z"/>
      <path class="cls-1" d="M346.19,90.52h-6.94l-5.35-14.44-5.17,14.44h-6.9l-11.25-30.14h9.31l3.88,10.61c.73,2.29,1.16,4.74,1.6,6.99l5.56-17.59h5.91l5.73,17.59c.43-2.29.99-4.7,1.68-7.2l3.62-10.39h9.31l-11,30.14Z"/>
      <path class="cls-1" d="M379.73,85.6h-13.5l-1.98,4.96h-9.06l13.54-30.18h8.62l13.5,30.18h-9.14l-1.98-4.96ZM373,68.83l-3.88,9.62h7.72l-3.84-9.62Z"/>
      <path class="cls-1" d="M414.35,76.89c-.22-3.62-.22-5-.26-6.17v-10.35h8.58v30.18h-7.24l-12.59-16.26.13,6.6v9.66h-8.62v-30.18h7.24l12.76,16.51Z"/>
      <path class="cls-1" d="M451.6,69.3c-2.2-2.07-4.87-2.63-6.9-2.63-4.92,0-8.11,2.93-8.11,8.84,0,3.88,2.03,8.67,8.11,8.67,1.6,0,4.1-.3,5.82-1.55v-3.88h-7.63v-6.68h14.75v13.41c-1.9,3.84-7.16,5.91-12.98,5.91-11.94,0-16.47-7.98-16.47-15.87s5.17-16,16.51-16c4.18,0,7.89.86,11.86,4.87l-4.96,4.92Z"/>
      <path class="cls-1" d="M463.54,90.56v-30.18h8.49v30.18h-8.49Z"/>
    </g>
    <g>
      <path class="cls-1" d="M148.49,99.31l-.65,2.68h2.91l.67-2.68h1.11l-.67,2.68h1.67v.93h-1.9l-1.08,4.22h1.75v.96h-1.96l-.65,2.65h-1.11l.65-2.65h-2.91l-.65,2.65h-1.11l.65-2.65h-1.54v-.96h1.75l1.1-4.22h-1.62v-.93h1.83l.65-2.68h1.11ZM147.59,102.89l-1.11,4.28h2.99l1.09-4.28h-2.97Z"/>
      <path class="cls-1" d="M161.4,99.31c3.87,0,5.74,2.78,5.74,5.61s-1.73,5.83-5.74,5.83h-4.04v-11.44h4.04ZM158.51,109.69h2.89c3.19,0,4.63-2.48,4.58-4.79-.05-2.22-1.49-4.51-4.58-4.51h-2.89v9.3Z"/>
      <path class="cls-1" d="M172.14,100.15c0,1.03-1.55,1.03-1.55,0s1.55-1.03,1.55,0ZM170.8,102.65v8.11h1.09v-8.11h-1.09Z"/>
      <path class="cls-1" d="M177.17,102.66v9.22c0,1.72-.44,2.91-2.24,2.91-.57,0-1.03-.16-1.54-.46l.34-.9c.38.2.77.29,1.16.29,1.1,0,1.18-.8,1.18-1.85v-9.22h1.09ZM175.85,100.08c0,1.03,1.55,1.03,1.55,0s-1.55-1.03-1.55,0Z"/>
      <path class="cls-1" d="M188.13,102.68h1.03v8.07h-1.01v-1.6c-.7,1.19-1.99,1.77-3.2,1.77-2.29,0-4.12-1.63-4.12-4.2s1.85-4.15,4.13-4.15c1.24,0,2.57.57,3.17,1.72v-1.6ZM181.92,106.72c0,1.91,1.37,3.17,3.07,3.17,4.17,0,4.17-6.32,0-6.32-1.7,0-3.07,1.26-3.07,3.15Z"/>
      <path class="cls-1" d="M199.18,110.75v-4.67c0-1.42-.95-2.52-2.37-2.52s-2.37,1.09-2.37,2.52v4.67h-1.09v-8.07h1.03l.05,1.26c.52-1.01,1.52-1.41,2.5-1.41,1.16,0,2.37.51,2.84,1.86.54-1.27,1.72-1.86,2.91-1.86,2.06,0,3.4,1.39,3.4,3.51v4.71h-1.09v-4.71c0-1.44-.9-2.48-2.32-2.48s-2.39,1.09-2.39,2.52v4.67h-1.1Z"/>
      <path class="cls-1" d="M211.5,100.15c0,1.03-1.55,1.03-1.55,0s1.55-1.03,1.55,0ZM210.16,102.65v8.11h1.09v-8.11h-1.09Z"/>
      <path class="cls-1" d="M221.81,110.75v-4.53c0-1.73-1.01-2.65-2.63-2.65-1.57.02-2.65,1.23-2.65,2.78v4.4h-1.09v-8.07h1.05l.03,1.36c.67-1.03,1.72-1.49,2.81-1.49,2.09,0,3.6,1.24,3.6,3.66v4.54h-1.11Z"/>
      <path class="cls-1" d="M238.04,105.07c-.02,2.99-1.91,5.9-5.79,5.9s-5.8-2.91-5.8-5.92c0-3.22,2.09-5.93,5.8-5.93,3.87.02,5.8,2.89,5.79,5.95ZM232.25,109.89c3.12,0,4.63-2.37,4.64-4.82,0-2.57-1.52-4.85-4.64-4.87-3.07,0-4.69,2.17-4.66,4.87.03,2.5,1.54,4.82,4.66,4.82Z"/>
      <path class="cls-1" d="M242.72,102.68l.07,1.32c.52-1.08,1.6-1.45,2.57-1.45.74,0,1.24.16,1.83.57l-.51.92c-.41-.28-.87-.42-1.39-.42-1.39.02-2.5,1.08-2.5,2.55v4.59h-1.09v-8.07h1.03Z"/>
      <path class="cls-1" d="M251.5,100.15c0,1.03-1.55,1.03-1.55,0s1.55-1.03,1.55,0ZM250.16,102.65v8.11h1.09v-8.11h-1.09Z"/>
      <path class="cls-1" d="M264.38,101.57c-.93-.93-2.29-1.37-3.51-1.37-3.12,0-4.8,2.32-4.79,4.89,0,2.5,1.59,4.72,4.79,4.72,1.14,0,2.34-.39,3.29-1.24v-2.89h-3.74v-1.06h4.84v4.43c-1.18,1.21-2.6,1.88-4.38,1.88-3.99,0-5.93-2.73-5.93-5.82-.02-3.5,2.32-5.98,5.93-5.98,1.52,0,3.04.57,4.2,1.72l-.69.74Z"/>
      <path class="cls-1" d="M275.96,102.68h1.03v8.07h-1.01v-1.6c-.7,1.19-1.99,1.77-3.2,1.77-2.29,0-4.12-1.63-4.12-4.2s1.85-4.15,4.13-4.15c1.24,0,2.57.57,3.17,1.72v-1.6ZM269.75,106.72c0,1.91,1.37,3.17,3.07,3.17,4.17,0,4.17-6.32,0-6.32-1.7,0-3.07,1.26-3.07,3.15Z"/>
      <path class="cls-1" d="M282.54,106.95v3.81h-1.14v-11.44h5.12c5.12,0,5.12,7.62,0,7.63h-3.97ZM282.54,105.87h3.97c3.58,0,3.58-5.48,0-5.48h-3.97v5.48Z"/>
      <path class="cls-1" d="M300.39,102.68h1.03v8.07h-1.01v-1.6c-.7,1.19-1.99,1.77-3.2,1.77-2.29,0-4.12-1.63-4.12-4.2s1.85-4.15,4.13-4.15c1.24,0,2.57.57,3.17,1.72v-1.6ZM294.18,106.72c0,1.91,1.37,3.17,3.07,3.17,4.17,0,4.17-6.32,0-6.32-1.7,0-3.07,1.26-3.07,3.15Z"/>
      <path class="cls-1" d="M306.68,99.31v6.83l3.53-3.46h1.39v.07l-3.87,3.74,4.35,4.2v.07h-1.41l-3.99-3.87v3.87h-1.08v-11.44h1.08Z"/>
      <path class="cls-1" d="M315.16,107.17c.15,1.68,1.45,2.68,3.06,2.68.98,0,2.16-.39,2.73-1.11l.74.65c-.8,1-2.19,1.5-3.46,1.5-2.4,0-4.18-1.62-4.18-4.2,0-2.42,1.73-4.17,4.13-4.17s4.33,1.45,4.02,4.64h-7.03ZM321.16,106.24c-.03-1.77-1.36-2.73-2.97-2.73s-2.81.98-3.02,2.73h6Z"/>
      <path class="cls-1" d="M335.96,101l-4.27,6.28h-.33l-4.28-6.36v9.84h-1.14v-11.44h1.41l4.18,6.31,4.13-6.31h1.44v11.44h-1.14v-9.76Z"/>
      <path class="cls-1" d="M348.2,102.68h1.03v8.07h-1.01v-1.6c-.7,1.19-1.99,1.77-3.2,1.77-2.29,0-4.12-1.63-4.12-4.2s1.85-4.15,4.13-4.15c1.24,0,2.57.57,3.17,1.72v-1.6ZM341.99,106.72c0,1.91,1.37,3.17,3.07,3.17,4.17,0,4.17-6.32,0-6.32-1.7,0-3.07,1.26-3.07,3.15Z"/>
      <path class="cls-1" d="M354.49,99.31v4.77c.67-1.1,1.73-1.5,2.81-1.52,2.26,0,3.37,1.49,3.37,3.66v4.53h-1.09v-4.53c0-1.62-.78-2.61-2.4-2.61s-2.66,1.23-2.66,2.79v4.35h-1.09v-11.44h1.08Z"/>
      <path class="cls-1" d="M371.53,102.68h1.03v8.07h-1.01v-1.6c-.7,1.19-1.99,1.77-3.2,1.77-2.29,0-4.12-1.63-4.12-4.2s1.85-4.15,4.13-4.15c1.24,0,2.57.57,3.17,1.72v-1.6ZM365.32,106.72c0,1.91,1.37,3.17,3.07,3.17,4.17,0,4.17-6.32,0-6.32-1.7,0-3.07,1.26-3.07,3.15Z"/>
      <path class="cls-1" d="M377.95,99.31v11.44h-1.09v-11.44h1.09Z"/>
    </g>
  </g>
  <g>
    <path class="cls-1" d="M11.11,48.42h0c-7.9,6.44-10.49,17.38-6.32,26.68l21.43,47.75.52-39.58-15.63-34.85Z"/>
    <g>
      <ellipse class="cls-1" cx="59.81" cy="134.01" rx="9.94" ry="7.41" transform="translate(-86.9 137.53) rotate(-67.32)"/>
      <ellipse class="cls-1" cx="90.83" cy="118.81" rx="9.94" ry="7.41" transform="translate(-53.81 156.81) rotate(-67.32)"/>
    </g>
    <polygon class="cls-1" points="57.85 84.68 97.59 11.59 118.91 2.6 62.65 104.96 39.1 95.43 39.1 76.64 57.85 84.68"/>
    <path class="cls-1" d="M109.63,32.02c-.06-.04-.13-.06-.19-.1l-4.25,7.73c3.15,3.46,6.33,9.08,6.43,14.33.29,16.53-11.76,39.56-46.48,54.66l-30.63,13.32c-1.36.59-2.47.03-2.89-.23s-1.39-1.05-1.41-2.53l-1.02-57.11c-.02-1.24.71-2.38,1.85-2.87l36.23-15.76c7.07-3.07,13.46-5.06,19.1-6.07,1.04-2.98,2.05-6.03,3.01-9.11-7.46.73-16.01,3.13-25.55,7.27l-36.23,15.76c-4.34,1.89-7.12,6.21-7.03,10.94l1.01,56.65c.05,2.75.86,5.5,2.61,7.62,2.37,2.86,5.72,4.32,9.09,4.32,1.58,0,3.17-.32,4.67-.97l30.63-13.32c38.61-16.79,52-43.41,51.66-62.72-.18-9.91-3.85-17.45-10.62-21.8Z"/>
  </g>
</svg>