<svg xmlns="http://www.w3.org/2000/svg" viewBox="0 0 5665.61 520.83" height="40px" width="435px" class="l-header__logo__img">
              <defs><style>.cls-1,.cls-2{stroke-width:0px;}.cls-2{fill:#c00;}</style></defs>
              <g><rect class="cls-1" x="2529.46" width="8.16" height="520.83"></rect>
                <path class="cls-2" style="fill:#c00;" d="m1755.22,270.17v-33.94l34.2-3.9c11.89-1.42,16.98-12.26,18.38-14.77l85.53-139.06c6.97-10.91.2-20.6-8.79-21.61l-45.01-5.19V17.28h194.75c10.86,0,17.83,7.55,22.39,14l113.72,173.82c8.96,13.99,15.83,24.86,27.23,26.36l35.8,3.98v34.73h-218.88v-34.25l27.8-3.42c13.33-1.51,24.24-7.58,13.33-23.82l-10.52-15.91h-155.31l-11.91,19.33c-7.43,11.82,0,18.88,11.39,20.4l27.83,3.42v34.25h-161.9m162.43-122.1h98.23l-49.59-77.98-48.65,77.98"></path>
                <path class="cls-2" style="fill:#c00;" d="m1610.12,17.28h-250.41v34.42l31.49,3.15c11.61,1.73,16.37,10.22,16.37,21.68v136.12c0,9.41-3.95,18.34-14.32,19.85l-33.65,4.32v33.19l250.52.15c115.32,0,164.88-56.04,164.88-130.08,0-66.51-49.56-122.81-164.88-122.81m-38.64,204.34h-64.54V65.65h64.54c61.55,0,87.47,14.31,87.47,77.87s-25.91,78.11-87.47,78.11"></path>
                <path class="cls-2" style="fill:#c00;" d="m0,270.18h202.62v-33.73l-34.69-3.93c-7.92-1.05-15.88-6.01-15.88-22.9v-40.71h155.95v38.7c0,11.5-1.94,22.37-15.45,23.86l-35.26,3.98v34.74h202.61v-34.74l-35.74-3.98c-6.93-.99-14.91-6.53-14.91-20.83V79.04c0-13.39,4.88-22.46,15.38-23.36l35.27-3.98V17.28h-202.61v33.95l35.26,4.45c11.94,1.5,15.45,10.92,15.45,23.36v39.27h-155.95v-39.8c0-14.93,5.96-21.93,16.35-22.83l34.22-3.98V17.28H.46v34.42l33.84,3.98c13.44,1.5,16.9,11.43,16.4,24.28v128.2c0,14.31-3.96,22.84-16.88,24.35l-33.82,3.93v33.73"></path>
                <path class="cls-2" style="fill:#c00;" d="m469.86,142.48c0-79.37,64.06-135.05,207.05-135.05s206.22,55.68,206.22,135.05-64.12,136.59-206.22,136.59-207.05-55.14-207.05-136.59m206.56-86.33c-57.55,0-90.3,21.4-90.3,86.89s32.75,87.94,90.3,87.94,90.42-21.38,90.42-87.94-32.82-86.89-90.42-86.89"></path>
                <path class="cls-2" style="fill:#c00;" d="m894.34,270.17h161.9v-33.73l-34.79-3.93c-9.88-1.05-15.91-9.39-15.91-20.89V82.97l134.62,177.31c4.51,5.88,12.9,9.89,20.9,9.89h127.03V78.5c0-9.04,2.33-21.29,15.38-22.83l35.29-3.98V17.28h-161.88v33.95l35.35,4.45c12.39,1.5,15.36,11.91,15.36,23.77v125.22l-133.65-176.31c-4.93-6.45-11.37-11.08-20.81-11.08h-178.8v34.42l33.77,3.98c11.89,1.77,16.37,7.8,16.37,24.28v128.2c0,15.16-4.14,22.41-16.89,24.35l-33.25,3.93v33.73"></path>
                <polygon class="cls-1" points="9.6 389.18 63.58 389.18 63.58 499.79 83.12 499.79 83.12 389.18 136.44 389.18 136.44 374.47 9.6 374.47 9.6 389.18"></polygon>
                <path class="cls-1" d="m219.55,401.68c-17.17,0-31.27,6.85-39.76,19.32v-46.53h-18.9v125.37h18.9v-44.61c0-29.9,19.11-40.57,36.98-40.57,18.89,0,28.9,10.99,28.9,31.74v53.44h18.82v-54.32c0-28.26-15.96-43.85-44.94-43.85Z"></path>
                <path class="cls-1" d="m693.83,411.5c-10.04-9.06-24.84-13.66-44.02-13.66s-33.32,4.94-43.48,14.33c-9.84,9.03-15.06,22.09-15.06,37.69,0,16.58,5.08,29.51,15.06,38.47,10.06,9.04,24.67,13.6,43.48,13.6,37.93,0,58.82-18.5,58.82-52.07,0-16.56-4.98-29.45-14.8-38.36Zm-5.09,38.36c0,11.09-3.44,20.57-9.93,27.4-6.87,7.24-16.92,11.06-29.01,11.06s-21.97-3.82-28.8-11.06c-6.43-6.82-9.79-16.31-9.79-27.4,0-24.06,14.41-38.44,38.59-38.44s38.94,14.01,38.94,38.44Z"></path>
                <path class="cls-1" d="m1263.83,411.5c-10-9.06-24.83-13.66-44.02-13.66s-33.36,4.94-43.59,14.33c-9.95,9.07-15.2,22.11-15.2,37.69,0,33.57,20.87,52.07,58.79,52.07,18.84,0,33.5-4.57,43.62-13.6,10.05-8.96,15.14-21.92,15.14-38.47s-4.94-29.47-14.74-38.36Zm-72.94,10.63c6.76-7,16.77-10.71,28.92-10.71,24.82,0,39.07,14.01,39.07,38.44,0,11.01-3.48,20.48-10.08,27.34-6.95,7.27-16.98,11.11-28.99,11.11-23.64,0-38.91-15.09-38.91-38.46,0-11.42,3.45-21.01,9.99-27.73Z"></path>
                <path class="cls-1" d="m1650.54,399.06c-18.9,1.48-28.93,13.42-35.3,25.02v-24.15h-16.9v99.99h19.17v-52.6c.49-9.7,4.13-17.6,10.88-23.52,6.73-5.94,15.33-8.97,25.57-8.97l9.29-.18v-15.56l-.25-.02c-2.94-.28-10.37-.16-12.46,0Z"></path>
                <path class="cls-1" d="m523.77,374.38c-.15,0-57.01.17-57.01.17v125.28h19.46v-48.16h40.19c16.89,0,30.02-3.81,38.96-11.27,8.21-6.91,12.56-16.84,12.56-28.75,0-9.92-3.07-18-9.09-24.04-8.79-8.81-23.98-13.22-45.07-13.22Zm33.39,37.42c0,17.72-10.02,25.64-32.43,25.64h-38.51v-48.76h37.18c23.01,0,33.75,7.36,33.75,23.12Z"></path>
                <path class="cls-1" d="m1552.58,390.74c-12.18-10.83-30.97-16.29-55.86-16.29h-55.88v125.5h56.62c23.17,0,41.29-5.53,53.85-16.21,12.59-10.94,18.97-26.54,18.97-46.62s-5.95-36.02-17.69-46.37Zm-91.96-1.9h31.56c22.74,0,37.47,3.95,46.32,12.25,7.9,7.45,11.43,18.64,11.43,36.14,0,32.59-17.96,48.4-54.9,48.4h-34.42v-96.79Z"></path>
                <path class="cls-1" d="m1904.01,478.61v-41.47c0-10.36-.28-18.95-10.39-27.6-8.65-7.4-23.35-11.56-38.15-11.56s-40.95,4.34-45.81,25.04h20.62c3.06-6.66,12.62-11.64,25.18-11.64,17.85,0,30.13,7.91,30.13,23.25v3.35h-10.15c-1.76,0-3.74-.02-5.79-.02-17.46,0-43.84.69-56.51,13.65-4.75,4.85-7.17,11.05-7.17,18.46,0,18.66,16.07,31.79,39.94,31.79,18.69,0,30.16-3.13,40.37-16.81,0,0,.11,8.57.98,14.85h18.11s-1.38-10.97-1.38-21.3Zm-18.41-23.15c0,22.03-11.41,33.14-34.95,33.14-15.98,0-24.74-6.84-24.74-18.52,0-4.05,1.35-7.5,4.06-10.21,7.72-7.81,24.53-8.69,37.06-8.69,1.97,0,3.85.02,5.59.04,1.34.01,2.6.02,3.71.02h9.28v4.22Z"></path>
                <path class="cls-1" d="m2056.82,398.02c-20.83,0-31.34,13.2-36.35,24.05-5.64-14.51-18.46-24.05-33.61-24.05s-27.7,7.62-34.89,20.93c0,0-.1-9.2-.81-19.04h-17.78c.56,7.46.64,16.55.64,24.41v75.6h18.81v-48.08c0-27.41,15.06-39.86,29.97-39.86s22.82,11.78,22.82,37.05v50.88h18.77v-48.08c0-14.58,3.85-25.44,11.41-32.42,7.37-6.83,15.66-7.44,18.01-7.44,9.05,0,15,3.03,18.69,9.47,3.42,5.92,4.97,14.91,4.97,28.49v49.98h18.82v-57.37c0-15.01-3.8-26.45-11.26-33.91-6.68-6.68-16.19-10.61-28.21-10.61Z"></path>
                <path class="cls-1" d="m2192.74,445.49l-31.36-6.47c-14.85-2.99-21.41-6.99-21.41-13.72,0-9.12,11.76-13.87,28.87-13.87,14.05,0,24.11,3.76,27.3,11.56h20.47c-1.43-8.72-6.36-15.08-14.95-19.31-9.79-4.81-23.66-5.83-32.27-5.83-13.25,0-24.5,2.46-32.63,7.11-9.34,5.33-15.59,13.18-15.59,23.31,0,13.24,9.72,21.18,27.3,25l29.68,6.34c10.22,2.14,20.75,5.06,20.75,13.71,0,10.38-10.88,15.41-30.61,15.41-16.32,0-26.2-4.69-29.48-14.47h-20.62c3.94,22.83,27.84,27.71,47.84,27.71,35.55,0,52.84-10.22,52.84-31.22,0-14.1-7.57-21.41-26.14-25.26Z"></path>
                <path class="cls-1" d="m1349.43,372.53c-10.25,0-19.2,1.08-26.7,7.24-3.19,2.62-6.35,6.74-8.26,12.54-1.76,5.34-2.22,10.91-2.39,20.38h-20.49v13.58h20.49l-.03,73.64h19.17v-73.64h34.56v-13.58h-34.56c0-13.93.65-18.39,4.74-22.29,2.74-2.61,6.84-4.39,15.97-4.39,5.5,0,11.41.6,14.97,1.68v-13.78c-4.9-.82-10.62-1.38-17.46-1.38Z"></path>
                <path class="cls-1" d="m860.04,444.25c-3.73,12.08-7.79,25.58-12.74,42.47h-.09c-4.04-13.48-8.33-27.47-12.73-41.55l-13.24-40.57-.06-.17h-29.08l-13.3,40.74c-4.48,13.58-8.76,27.56-12.74,41.55h-.1c-4.95-16.93-8.99-30.42-12.72-42.47l-12.33-39.64-.06-.17h-20.81l30.9,95.3.05.16h29.12l13.75-41.3c1.1-3.52,2.2-7.03,3.3-10.52,3.13-9.92,6.36-20.19,9.41-30.44h.1c3.18,10.7,6.57,21.42,9.85,31.79.96,3.05,1.92,6.11,2.89,9.18l13.68,41.12.05.16h29.1l30.87-95.15.1-.32h-20.82l-12.37,39.81Z"></path>
                <path class="cls-1" d="m1090.65,399.06c-18.89,1.48-28.93,13.42-35.3,25.02v-24.15h-16.9v99.99h19.17v-52.6c.49-9.7,4.14-17.6,10.88-23.52,6.73-5.94,15.33-8.97,25.57-8.97l9.29-.18v-15.56l-.25-.02c-2.94-.28-10.37-.16-12.46,0Z"></path>
                <path class="cls-1" d="m998.93,411.7c-8.8-8.77-21.61-13.85-38-13.85-34.33,0-54.03,20.04-54.03,53.9,0,15.01,4.85,27.5,14.04,36.13,9.32,8.78,23.33,14.06,39.85,14.06,12.54,0,23.84-3.16,32.27-7.97,8.06-4.6,14.75-11.05,17.37-19.71h-20.87c-5.09,9.31-16.25,14.31-29.86,14.31s-24.3-6.31-29.93-17.56c-2.25-4.52-3.92-10.16-4.35-15.85h86.76v-5.8c0-16.24-4.44-28.92-13.24-37.66Zm-73.08,30.07c.11-1.77.62-3.79,1.07-5.56,4.09-16.06,15.78-24.95,33.58-24.95,22.92,0,31.53,16.01,31.91,30.51h-66.57Z"></path>
                <path class="cls-1" d="m1770.84,411.7c-8.8-8.77-21.61-13.85-38-13.85-34.34,0-54.04,20.04-54.04,53.9,0,15.01,4.85,27.5,14.05,36.13,9.32,8.78,23.32,14.06,39.85,14.06,12.55,0,23.84-3.16,32.27-7.97,8.06-4.6,14.75-11.05,17.36-19.71h-20.87c-5.09,9.31-16.25,14.31-29.87,14.31s-24.3-6.31-29.92-17.56c-2.26-4.52-3.92-10.16-4.35-15.85h86.75c.21-3.37.09-7.01-.39-12.51-.82-9.34-3.49-21.63-12.85-30.94Zm-73.08,30.07c.1-1.77.62-3.79,1.07-5.56,4.09-16.06,15.79-24.95,33.58-24.95,22.92,0,31.54,16.01,31.91,30.51h-66.56Z"></path>
                <path class="cls-1" d="m378.87,411.7c-8.8-8.77-21.61-13.85-38-13.85-34.34,0-54.03,20.04-54.03,53.9,0,15.01,4.85,27.5,14.05,36.13,9.32,8.78,23.32,14.06,39.84,14.06,12.54,0,23.85-3.16,32.27-7.97,8.06-4.6,14.75-11.05,17.37-19.71h-20.87c-5.08,9.31-16.25,14.31-29.86,14.31s-24.3-6.31-29.92-17.56c-2.26-4.52-3.92-10.16-4.36-15.85h86.76v-5.8c0-16.24-4.44-28.92-13.24-37.66Zm-73.08,30.07c.11-1.77.62-3.79,1.07-5.56,4.09-16.06,15.79-24.95,33.59-24.95,22.92,0,31.54,16.01,31.91,30.51h-66.57Z"></path>
                <polygon class="cls-1" points="3660.4 449.5 3580.35 410.22 3580.35 488.78 3660.4 449.5"></polygon>
                <path class="cls-1" d="m2840.41,446.84c0-33,19.94-53.36,48.2-53.36,21.23,0,39.88,11.18,44.75,36.14h-15.48c-4.31-16.21-16.07-22.37-29.27-22.37-19.52,0-32.28,14.62-32.28,39.59s12.76,39.59,32.28,39.59c13.92,0,27.54-8.17,29.98-26.26h15.35c-2.87,26.83-23.24,40.03-45.33,40.03-28.11,0-48.2-20.37-48.2-53.36Z"></path>
                <path class="cls-1" d="m3037.76,485.42c.29,4.46,1.29,9.18,3.45,12.48h-15.79c-2.15-3.16-2.87-7.75-3.01-13.06l-.43-10.91c-.57-13.77-6.02-18.07-17.35-18.07h-29.7v42.03h-15.35v-102.15h44.62c21.52,0,35.15,10.48,35.15,28.27,0,12.76-6.59,21.23-17.21,24.67,10.47,3.01,14.2,10.19,14.63,20.8l1,15.92Zm-33.28-42.31c11.18,0,19.08-5.89,19.08-17.65s-7.89-16.5-20.23-16.5h-28.41v34.15h29.56Z"></path>
                <path class="cls-1" d="m3140.13,409.53h-57.53v28.84h52.07v13.48h-52.07v32.28h57.1v13.77h-72.45v-102.15h72.88v13.77Z"></path>
                <path class="cls-1" d="m3238.78,497.9l-10.04-26.54h-45.91l-9.9,26.54h-15.92l39.88-102.15h17.65l40.45,102.15h-16.21Zm-51.07-39.88h36.01l-2.15-5.6c-4.17-10.47-10.76-27.68-15.93-41.89-5.16,14.21-11.76,31.42-15.78,41.89l-2.15,5.6Z"></path>
                <path class="cls-1" d="m3338.16,395.76v13.77h-33.86v88.37h-15.64v-88.37h-33.85v-13.77h83.35Z"></path>
                <path class="cls-1" d="m3430.78,409.53h-57.53v28.84h52.07v13.48h-52.07v32.28h57.1v13.77h-72.45v-102.15h72.88v13.77Z"></path>
                <path class="cls-1" d="m3880.51,395.76v13.77h-33.86v88.37h-15.64v-88.37h-33.85v-13.77h83.35Z"></path>
                <path class="cls-1" d="m3980.73,485.42c.29,4.46,1.29,9.18,3.45,12.48h-15.79c-2.15-3.16-2.87-7.75-3.01-13.06l-.43-10.91c-.57-13.77-6.02-18.07-17.35-18.07h-29.7v42.03h-15.35v-102.15h44.62c21.52,0,35.15,10.48,35.15,28.27,0,12.76-6.59,21.23-17.21,24.67,10.47,3.01,14.2,10.19,14.63,20.8l1,15.92Zm-33.28-42.31c11.18,0,19.08-5.89,19.08-17.65s-7.89-16.5-20.23-16.5h-28.41v34.15h29.56Z"></path>
                <path class="cls-1" d="m4082.25,497.9l-10.04-26.54h-45.91l-9.9,26.54h-15.92l39.88-102.15h17.65l40.45,102.15h-16.21Zm-51.07-39.88h36.01l-2.15-5.6c-4.17-10.47-10.76-27.68-15.93-41.89-5.16,14.21-11.76,31.42-15.78,41.89l-2.15,5.6Z"></path>
                <path class="cls-1" d="m4187.36,395.76h14.77v102.15h-17.65l-31.41-49.49c-6.75-10.61-14.5-22.95-19.94-32.85.57,19.22.57,36.86.57,51.36v30.98h-14.93v-102.15h17.65l31.56,49.5c6.46,10.18,14.34,23.1,19.94,33-.57-19.37-.57-37.02-.57-51.5v-30.99Z"></path>
                <path class="cls-1" d="m4228.34,464.19h15.35c.28,17.65,12.34,22.95,27.54,22.95s23.81-5.88,23.81-17.07c0-9.04-6.04-13.19-23.1-16.92l-8.76-1.87c-18.51-3.73-31.84-11.62-31.84-30.13,0-16.64,13.48-27.68,36.15-27.68,29.4,0,40.16,14.49,40.59,32.27h-15.2c-.85-12.05-6.74-19.22-25.25-19.22-13.77,0-20.66,5.6-20.66,14.35s4.74,13.33,22.24,17.21l8.9,1.87c23.81,5.02,32.85,14.2,32.85,29.69,0,18.93-14.78,30.56-39.74,30.56s-42.75-11.33-42.89-36.01Z"></path>
                <path class="cls-1" d="m4330.29,446.84c0-33,19.94-53.36,48.2-53.36,21.23,0,39.88,11.18,44.75,36.14h-15.48c-4.31-16.21-16.07-22.37-29.27-22.37-19.52,0-32.28,14.62-32.28,39.59s12.76,39.59,32.28,39.59c13.92,0,27.54-8.17,29.98-26.26h15.35c-2.87,26.83-23.24,40.03-45.33,40.03-28.11,0-48.2-20.37-48.2-53.36Z"></path>
                <path class="cls-1" d="m4522.75,409.53h-57.53v28.84h52.07v13.48h-52.07v32.28h57.1v13.77h-72.45v-102.15h72.88v13.77Z"></path>
                <path class="cls-1" d="m4618.11,395.76h14.77v102.15h-17.63l-31.42-49.49c-6.75-10.61-14.49-22.95-19.94-32.85.57,19.22.57,36.86.57,51.36v30.98h-14.93v-102.15h17.65l31.56,49.5c6.46,10.18,14.34,23.1,19.94,33-.57-19.37-.57-37.02-.57-51.5v-30.99Z"></path>
                <path class="cls-1" d="m4749.31,446.84c0,31.55-18.65,51.07-50.64,51.07h-36.45v-102.15h36.45c31.99,0,50.64,19.52,50.64,51.08Zm-50.79,37.59c22.52,0,34.72-13.77,34.72-37.59s-12.21-37.59-34.72-37.59h-20.95v75.17h20.95Z"></path>
                <path class="cls-1" d="m4780.39,479.25h19.09v19.73c0,14.35-5.84,20.51-16.73,21.29l-2.36.16v-9.78l2.06-.16c4.57-.48,6.47-4.1,6.47-10.58v-2.2h-8.52v-18.46Z"></path>
                <path class="cls-1" d="m4971.78,497.9l-10.04-26.54h-45.91l-9.9,26.54h-15.92l39.88-102.15h17.65l40.45,102.15h-16.21Zm-51.07-39.88h36.01l-2.15-5.6c-4.17-10.47-10.76-27.68-15.93-41.89-5.16,14.21-11.76,31.42-15.78,41.89l-2.15,5.6Z"></path>
                <path class="cls-1" d="m5002.43,459.74v-63.99h15.35v63.84c0,18.36,9.62,26.68,25.96,26.68s25.96-8.32,25.96-26.68v-63.84h15.35v63.99c0,25.96-15.5,40.31-41.31,40.31s-41.31-14.34-41.31-40.31Z"></path>
                <path class="cls-1" d="m5159.46,444.25h44.47v53.65h-11.76l-2.73-13.63c-7.31,10.19-18.64,15.92-33.28,15.92-29.27,0-48.49-21.52-48.49-53.36s19.08-53.36,49.35-53.36c25.24,0,42.46,14.34,45.76,36h-15.79c-2.87-13.91-14.63-22.37-29.84-22.37-20.51,0-33.57,15.35-33.57,39.74s13.2,39.74,33.86,39.74c17.21,0,31.56-11.91,32.13-29.27h-30.13v-13.06Z"></path>
                <path class="cls-1" d="m5318.06,395.76h21.37v102.15h-14.77v-31.99c0-14.49,0-32.43.57-51.8-2.59,7.89-5.16,14.78-8.61,23.68l-23.1,60.1h-12.91l-23.38-60.1c-3.3-8.76-5.89-15.5-8.46-23.24.57,19.22.57,37.02.57,51.36v31.99h-14.78v-102.15h21.24l20.94,54.37c3.59,9.62,7.6,20.52,10.48,28.84,2.87-8.61,7.02-20.51,10.61-30.28l20.22-52.94Z"></path>
                <path class="cls-1" d="m5444.39,409.53h-57.53v28.84h52.07v13.48h-52.07v32.28h57.1v13.77h-72.45v-102.15h72.88v13.77Z"></path>
                <path class="cls-1" d="m5537.01,395.76h14.77v102.15h-17.65l-31.41-49.49c-6.75-10.61-14.5-22.95-19.94-32.85.57,19.22.57,36.86.57,51.36v30.98h-14.93v-102.15h17.65l31.56,49.5c6.46,10.18,14.34,23.1,19.94,33-.57-19.37-.57-37.02-.57-51.5v-30.99Z"></path>
                <path class="cls-1" d="m5657.47,395.76v13.77h-33.86v88.37h-15.64v-88.37h-33.85v-13.77h83.35Z"></path>
                <path class="cls-1" d="m2991.21,18.66h54.53v229.76h-54.53v-93.26h-92.3v93.26h-54.53V18.66h54.53v88.1h92.3V18.66Z"></path>
                <path class="cls-1" d="m3070.19,165.16c0-52.92,34.21-87.13,87.46-87.13s87.11,34.21,87.11,87.13-34.19,87.13-87.11,87.13-87.46-34.21-87.46-87.13Zm123.6,0c0-31.62-13.88-46.78-36.14-46.78s-36.47,15.16-36.47,46.78,13.87,46.78,36.47,46.78,36.14-15.16,36.14-46.78Z"></path>
                <path class="cls-1" d="m3473.18,81.9h53.9l-54.21,166.51h-52.92l-18.39-62.6c-4.53-14.84-8.72-30-12.59-44.86-3.56,14.86-7.74,30.02-11.93,44.86l-18.4,62.6h-52.92l-54.54-166.51h54.21l15.49,53.57c5.49,18.72,10.65,37.43,15.49,56.15,4.53-18.72,9.36-37.43,14.53-56.46l15.16-53.25h46.47l15.17,53.25c5.16,19.03,10.01,37.75,14.51,56.46,4.85-18.72,10.01-37.43,15.49-56.15l15.49-53.57Z"></path>
                <path class="cls-1" d="m3827.53,81.9h53.88l-54.21,166.51h-52.92l-18.4-62.6c-4.51-14.84-8.71-30-12.58-44.86-3.54,14.86-7.74,30.02-11.95,44.86l-18.39,62.6h-52.92l-54.53-166.51h54.21l15.49,53.57c5.48,18.72,10.64,37.43,15.49,56.15,4.51-18.72,9.35-37.43,14.51-56.46l15.17-53.25h46.47l15.16,53.25c5.16,19.03,10,37.75,14.53,56.46,4.83-18.72,10-37.43,15.49-56.15l15.49-53.57Z"></path>
                <path class="cls-1" d="m3886.81,165.16c0-52.6,33.88-87.13,85.84-87.13s85.84,35.81,85.84,91.97v10h-123.27c3.54,24.2,18.4,35.18,38.08,35.18,16.46,0,27.75-6.78,33.56-18.73h47.76c-9.04,34.85-41.3,55.83-81.32,55.83-51.63,0-86.48-34.21-86.48-87.13Zm122.62-17.1c-3.56-20.65-16.78-32.93-37.43-32.93-18.39,0-32.59,10.01-36.46,32.93h73.89Z"></path>
                <path class="cls-1" d="m4412.39,140.32v108.1h-50.34v-99.39c0-18.07-7.1-28.07-24.84-28.07-15.17,0-28.73,10-28.73,35.48v91.97h-50.34v-99.39c0-18.07-7.1-28.07-24.85-28.07-15.16,0-29.03,10-29.03,35.48v91.97h-50.34V81.9h49.05v23.56c10.64-15.82,25.49-27.43,47.43-27.43,24.2,0,42.6,10.65,51.63,30.02,11.29-16.78,29.04-30.02,51.96-30.02,35.81,0,58.4,22.27,58.4,62.29Z"></path>
                <path class="cls-1" d="m4435.86,165.16c0-52.92,34.21-87.13,87.44-87.13s87.14,34.21,87.14,87.13-34.22,87.13-87.14,87.13-87.44-34.21-87.44-87.13Zm123.58,0c0-31.62-13.87-46.78-36.14-46.78s-36.46,15.16-36.46,46.78,13.88,46.78,36.46,46.78,36.14-15.16,36.14-46.78Z"></path>
                <path class="cls-1" d="m4741.07,81.9h51.63l-59.38,166.51h-60.01l-59.38-166.51h54.21l8.71,25.17c9.04,31.95,18.72,65.83,27.75,98.41,9.04-32.59,18.72-66.46,27.75-98.41l8.71-25.17Z"></path>
                <path class="cls-1" d="m4795.88,165.16c0-52.6,33.89-87.13,85.84-87.13s85.84,35.81,85.84,91.97v10h-123.27c3.56,24.2,18.39,35.18,38.08,35.18,16.45,0,27.75-6.78,33.56-18.73h47.76c-9.04,34.85-41.3,55.83-81.32,55.83-51.63,0-86.48-34.21-86.48-87.13Zm122.62-17.1c-3.54-20.65-16.78-32.93-37.43-32.93-18.4,0-32.6,10.01-36.47,32.93h73.9Z"></path>
                <path class="cls-1" d="m5164.32,81.9h51.95l-60.35,172.96c-14.51,41.95-33.56,57.12-82.93,57.12-9.68,0-14.51-.33-19.68-.66v-38.72h16.12c18.73,0,25.18-10.64,25.18-23.23,0-9.35-3.87-21.29-7.74-32.27l-47.76-135.2h54.21l7.42,23.56c9.68,32.59,19.36,66.79,28.4,104.87,9.04-38.41,18.4-72.28,27.75-104.55l7.43-23.88Z"></path>
                <path class="cls-1" d="m5219.77,165.16c0-52.92,34.21-87.13,87.44-87.13s87.14,34.21,87.14,87.13-34.22,87.13-87.14,87.13-87.44-34.21-87.44-87.13Zm123.58,0c0-31.62-13.87-46.78-36.14-46.78s-36.46,15.16-36.46,46.78,13.88,46.78,36.46,46.78,36.14-15.16,36.14-46.78Z"></path>
                <path class="cls-1" d="m5527.88,81.9h50.34v166.51h-49.05v-23.56c-10.97,15.49-27.75,27.43-52.28,27.43-32.91,0-57.76-20.01-57.76-61.31v-109.07h50.34v99.06c0,18.4,8.06,28.4,26.78,28.4,15.49,0,31.62-10,31.62-34.52v-92.93Z"></path>
                <path class="cls-1" d="m5608.82,248.41v-55.5h56.79v55.5h-56.79Z"></path>
              </g>
            </svg>